<?xml version="1.0" encoding="UTF-8"?>
<svg width="800px" height="1642px" viewBox="0 0 800 1642" version="1.1" xmlns="http://www.w3.org/2000/svg" xmlns:xlink="http://www.w3.org/1999/xlink">
    <title>cloth</title>
    <g id="cloth" stroke="none" stroke-width="0" fill="none" fill-rule="evenodd">
        <!-- <path id="rect1" fill="#0D0D0D"
            d="M134,0 L884,0 L884,1642 L134,1642 C134,1566.66667 134,1529 134,1529 C104,1275 43,1290.15457 43,1224 C43,1157.84543 119,1194 134,851 C134,851 134,567.333333 134,0 Z" 
            ></path>
        <path id="rect2" fill="#0D0D0D"
            d="M134,0 L884,0 L884,1642 L134,1642 C134,1566.66667 134,1529 134,1529 C134,1437 195,1291.15457 195,1225 C195,1158.84543 134,934 134,851 C134,851 134,567.333333 134,0 Z" 
            ></path>
        <path id="rect3" fill="#0D0D0D"
            d="M133.999995,0 L883.999995,0 L883.999995,1642 L133.999995,1642 C133.999995,1487.33333 133.999995,1410 133.999995,1410 C123.93692,1324.16784 105.999995,1291.15457 105.999995,1225 C105.999995,1158.84543 130.612973,1101.15964 133.999995,1021 C133.999995,1021 133.999995,680.666667 133.999995,0 Z" 
            ></path>
        <path id="rect4" fill="#0D0D0D"
            d="M134,0 L884,0 L884,1642 L134,1642 C134,1487.33333 134,1410 134,1410 C134,1324 148,1294.15457 148,1228 C148,1161.84543 134,1072 134,1021 C134,1021 134,680.666667 134,0 Z" 
            ></path> 
            bk rect-5
            d="M134,0 L884,0 L884,1642 L134,1642 C134,1487.33333 134,1410 134,1410 C134,1410 134,1297.15457 134,1231 C134,1164.84543 134,1021 134,1021 C134,1021 134,680.666667 134,0 Z" 

            -->
        <path id="rect5" fill="#0D0D0D"
            transform="translate(620 0)" 
            d="M133.999995,0 L883.999995,0 L883.999995,1642 L133.999995,1642 C133.999995,1487.33333 133.999995,1410 133.999995,1410 C123.93692,1324.16784 105.999995,1291.15457 105.999995,1225 C105.999995,1158.84543 130.612973,1101.15964 133.999995,1021 C133.999995,1021 133.999995,680.666667 133.999995,0 Z" 
            >
            <animate 
                attributeType="XML"
                attributeName="d" 
                values="M133.999995,0 L883.999995,0 L883.999995,1642 L133.999995,1642 C133.999995,1487.33333 133.999995,1410 133.999995,1410 C123.93692,1324.16784 105.999995,1291.15457 105.999995,1225 C105.999995,1158.84543 130.612973,1101.15964 133.999995,1021 C133.999995,1021 133.999995,680.666667 133.999995,0 Z
                        ;M134,0 L884,0 L884,1642 L134,1642 C134,1566.66667 134,1529 134,1529 C104,1275 -191,1387 -191,1226 C-191,1065 94,1189 134,655 C134,655 134,436.666667 134,0 Z
                        ;M134,0 L884,0 L884,1642 L134,1642 C134,1566.66667 134,1529 134,1529 C104,1275 -191,1387 -191,1226 C-191,1065 94,1189 134,655 C134,655 134,436.666667 134,0 Z
                        ;M134,0 L884,0 L884,1642 L134,1642 C134,1566.66667 134,1529 134,1529 C134,1437 195,1291.15457 195,1225 C195,1158.84543 134,934 134,851 C134,851 134,567.333333 134,0 Z
                        ;M133.999995,0 L883.999995,0 L883.999995,1642 L133.999995,1642 C133.999995,1487.33333 133.999995,1410 133.999995,1410 C123.93692,1324.16784 105.999995,1291.15457 105.999995,1225 C105.999995,1158.84543 130.612973,1101.15964 133.999995,1021 C133.999995,1021 133.999995,680.666667 133.999995,0 Z
                        ;M134,0 L884,0 L884,1642 L134,1642 C134,1487.33333 134,1410 134,1410 C134,1324 148,1294.15457 148,1228 C148,1161.84543 134,1072 134,1021 C134,1021 134,680.666667 134,0 Z
                        ;M134,0 L884,0 L884,1642 L134,1642 C134,1487.33333 134,1410 134,1410 C134,1410 134,1297.15457 134,1231 C134,1164.84543 134,1021 134,1021 C134,1021 134,680.666667 134,0 Z"
                keyTimes="0
                          ;0.3
                          ;0.5
                          ;0.65
                          ;0.8
                          ;0.95
                          ;1"
                keySplines="0.61 1 0.88 1
                            ;0.61 1 0.88 1
                            ;0.61 1 0.88 1
                            ;0.61 1 0.88 1
                            ;0.61 1 0.88 1
                            ;0.61 1 0.88 1"                 
                calcMode="spline"
                begin="1s"
                dur="1.2s"  
                repeatCount="1"
                fill="both"
            /> 
                 <animateTransform 
                        attributeName="transform"
                        type="translate"
                        values="620 0;-134 0"
                        keyTimes="0;1"
                        keySplines="0.32 0 0.67 1"                 
                        calcMode="spline"
                        begin="1s"
                        dur="0.6s"  
                        repeatCount="1"
                        fill="freeze"
                    />
            </path>
    </g>
</svg>